<?xml version="1.0" encoding="UTF-8" standalone="no"?>
<!DOCTYPE svg PUBLIC "-//W3C//DTD SVG 1.1//EN"
 "http://www.w3.org/Graphics/SVG/1.1/DTD/svg11.dtd">
<!-- Generated by graphviz version 2.36.0 (20140111.2315)
 -->
<!-- Title: controllers_diagram Pages: 1 -->
<svg width="619pt" height="618pt"
 viewBox="0.00 0.00 619.00 618.00" xmlns="http://www.w3.org/2000/svg" xmlns:xlink="http://www.w3.org/1999/xlink">
<g id="graph0" class="graph" transform="scale(1 1) rotate(0) translate(4 614)">
<title>controllers_diagram</title>
<polygon fill="none" stroke="none" points="-4,4 -4,-614 615,-614 615,4 -4,4"/>
<!-- _diagram_info -->
<g id="node1" class="node"><title>_diagram_info</title>
<text text-anchor="start" x="332" y="-63.6" font-family="Times,serif" font-size="13.00">Controllers diagram</text>
<text text-anchor="start" x="332" y="-49.6" font-family="Times,serif" font-size="13.00">Date: Jan 13 2016 &#45; 20:27</text>
<text text-anchor="start" x="332" y="-35.6" font-family="Times,serif" font-size="13.00">Migration version: 20160112143543</text>
<text text-anchor="start" x="332" y="-21.6" font-family="Times,serif" font-size="13.00">Generated by RailRoady 1.4.2</text>
<text text-anchor="start" x="332" y="-7.6" font-family="Times,serif" font-size="13.00">http://railroady.prestonlee.com</text>
</g>
<!-- UsersController -->
<g id="node2" class="node"><title>UsersController</title>
<path fill="none" stroke="black" d="M192,-54.5C192,-54.5 271,-54.5 271,-54.5 277,-54.5 283,-60.5 283,-66.5 283,-66.5 283,-330.5 283,-330.5 283,-336.5 277,-342.5 271,-342.5 271,-342.5 192,-342.5 192,-342.5 186,-342.5 180,-336.5 180,-330.5 180,-330.5 180,-66.5 180,-66.5 180,-60.5 186,-54.5 192,-54.5"/>
<text text-anchor="middle" x="231.5" y="-327.3" font-family="Times,serif" font-size="14.00">UsersController</text>
<polyline fill="none" stroke="black" points="180,-319.5 283,-319.5 "/>
<text text-anchor="start" x="188" y="-304.3" font-family="Times,serif" font-size="14.00">comments</text>
<text text-anchor="start" x="188" y="-289.3" font-family="Times,serif" font-size="14.00">create</text>
<text text-anchor="start" x="188" y="-274.3" font-family="Times,serif" font-size="14.00">destroy</text>
<text text-anchor="start" x="188" y="-259.3" font-family="Times,serif" font-size="14.00">edit</text>
<text text-anchor="start" x="188" y="-244.3" font-family="Times,serif" font-size="14.00">github_login</text>
<text text-anchor="start" x="188" y="-229.3" font-family="Times,serif" font-size="14.00">index</text>
<text text-anchor="start" x="188" y="-214.3" font-family="Times,serif" font-size="14.00">new</text>
<text text-anchor="start" x="188" y="-199.3" font-family="Times,serif" font-size="14.00">show</text>
<text text-anchor="start" x="188" y="-184.3" font-family="Times,serif" font-size="14.00">stars</text>
<text text-anchor="start" x="188" y="-169.3" font-family="Times,serif" font-size="14.00">update</text>
<polyline fill="none" stroke="black" points="180,-161.5 283,-161.5 "/>
<polyline fill="none" stroke="black" points="180,-137.5 283,-137.5 "/>
<text text-anchor="start" x="188" y="-122.3" font-family="Times,serif" font-size="14.00">_layout</text>
<text text-anchor="start" x="188" y="-107.3" font-family="Times,serif" font-size="14.00">admin_user</text>
<text text-anchor="start" x="188" y="-92.3" font-family="Times,serif" font-size="14.00">correct_user</text>
<text text-anchor="start" x="188" y="-77.3" font-family="Times,serif" font-size="14.00">set_user</text>
<text text-anchor="start" x="188" y="-62.3" font-family="Times,serif" font-size="14.00">user_params</text>
</g>
<!-- WelcomeController -->
<g id="node3" class="node"><title>WelcomeController</title>
<path fill="none" stroke="black" d="M498,-270.5C498,-270.5 599,-270.5 599,-270.5 605,-270.5 611,-276.5 611,-282.5 611,-282.5 611,-351.5 611,-351.5 611,-357.5 605,-363.5 599,-363.5 599,-363.5 498,-363.5 498,-363.5 492,-363.5 486,-357.5 486,-351.5 486,-351.5 486,-282.5 486,-282.5 486,-276.5 492,-270.5 498,-270.5"/>
<text text-anchor="middle" x="548.5" y="-348.3" font-family="Times,serif" font-size="14.00">WelcomeController</text>
<polyline fill="none" stroke="black" points="486,-340.5 611,-340.5 "/>
<text text-anchor="start" x="494" y="-325.3" font-family="Times,serif" font-size="14.00">index</text>
<polyline fill="none" stroke="black" points="486,-317.5 611,-317.5 "/>
<polyline fill="none" stroke="black" points="486,-293.5 611,-293.5 "/>
<text text-anchor="start" x="494" y="-278.3" font-family="Times,serif" font-size="14.00">_layout</text>
</g>
<!-- ThirdpartiesController -->
<g id="node4" class="node"><title>ThirdpartiesController</title>
<path fill="none" stroke="black" d="M156,-378.5C156,-378.5 270,-378.5 270,-378.5 276,-378.5 282,-384.5 282,-390.5 282,-390.5 282,-579.5 282,-579.5 282,-585.5 276,-591.5 270,-591.5 270,-591.5 156,-591.5 156,-591.5 150,-591.5 144,-585.5 144,-579.5 144,-579.5 144,-390.5 144,-390.5 144,-384.5 150,-378.5 156,-378.5"/>
<text text-anchor="middle" x="213" y="-576.3" font-family="Times,serif" font-size="14.00">ThirdpartiesController</text>
<polyline fill="none" stroke="black" points="144,-568.5 282,-568.5 "/>
<text text-anchor="start" x="152" y="-553.3" font-family="Times,serif" font-size="14.00">create</text>
<text text-anchor="start" x="152" y="-538.3" font-family="Times,serif" font-size="14.00">destroy</text>
<text text-anchor="start" x="152" y="-523.3" font-family="Times,serif" font-size="14.00">edit</text>
<text text-anchor="start" x="152" y="-508.3" font-family="Times,serif" font-size="14.00">index</text>
<text text-anchor="start" x="152" y="-493.3" font-family="Times,serif" font-size="14.00">new</text>
<text text-anchor="start" x="152" y="-478.3" font-family="Times,serif" font-size="14.00">show</text>
<text text-anchor="start" x="152" y="-463.3" font-family="Times,serif" font-size="14.00">update</text>
<polyline fill="none" stroke="black" points="144,-455.5 282,-455.5 "/>
<polyline fill="none" stroke="black" points="144,-431.5 282,-431.5 "/>
<text text-anchor="start" x="152" y="-416.3" font-family="Times,serif" font-size="14.00">_layout</text>
<text text-anchor="start" x="152" y="-401.3" font-family="Times,serif" font-size="14.00">set_thirdparty</text>
<text text-anchor="start" x="152" y="-386.3" font-family="Times,serif" font-size="14.00">thirdparty_params</text>
</g>
<!-- ApplicationController -->
<g id="node5" class="node"><title>ApplicationController</title>
<path fill="none" stroke="black" d="M12,-0.5C12,-0.5 124,-0.5 124,-0.5 130,-0.5 136,-6.5 136,-12.5 136,-12.5 136,-82.5 136,-82.5 136,-88.5 130,-94.5 124,-94.5 124,-94.5 12,-94.5 12,-94.5 6,-94.5 0,-88.5 0,-82.5 0,-82.5 0,-12.5 0,-12.5 0,-6.5 6,-0.5 12,-0.5"/>
<text text-anchor="middle" x="68" y="-79.3" font-family="Times,serif" font-size="14.00">ApplicationController</text>
<polyline fill="none" stroke="black" points="0,-71.5 136,-71.5 "/>
<polyline fill="none" stroke="black" points="0,-47.5 136,-47.5 "/>
<polyline fill="none" stroke="black" points="0,-23.5 136,-23.5 "/>
<text text-anchor="start" x="8" y="-8.3" font-family="Times,serif" font-size="14.00">_layout</text>
</g>
<!-- SessionsController -->
<g id="node6" class="node"><title>SessionsController</title>
<path fill="none" stroke="black" d="M498,-108.5C498,-108.5 593,-108.5 593,-108.5 599,-108.5 605,-114.5 605,-120.5 605,-120.5 605,-219.5 605,-219.5 605,-225.5 599,-231.5 593,-231.5 593,-231.5 498,-231.5 498,-231.5 492,-231.5 486,-225.5 486,-219.5 486,-219.5 486,-120.5 486,-120.5 486,-114.5 492,-108.5 498,-108.5"/>
<text text-anchor="middle" x="545.5" y="-216.3" font-family="Times,serif" font-size="14.00">SessionsController</text>
<polyline fill="none" stroke="black" points="486,-208.5 605,-208.5 "/>
<text text-anchor="start" x="494" y="-193.3" font-family="Times,serif" font-size="14.00">create</text>
<text text-anchor="start" x="494" y="-178.3" font-family="Times,serif" font-size="14.00">destroy</text>
<text text-anchor="start" x="494" y="-163.3" font-family="Times,serif" font-size="14.00">loginReg</text>
<polyline fill="none" stroke="black" points="486,-155.5 605,-155.5 "/>
<polyline fill="none" stroke="black" points="486,-131.5 605,-131.5 "/>
<text text-anchor="start" x="494" y="-116.3" font-family="Times,serif" font-size="14.00">_layout</text>
</g>
<!-- StarsController -->
<g id="node7" class="node"><title>StarsController</title>
<path fill="none" stroke="black" d="M66,-126.5C66,-126.5 141,-126.5 141,-126.5 147,-126.5 153,-132.5 153,-138.5 153,-138.5 153,-327.5 153,-327.5 153,-333.5 147,-339.5 141,-339.5 141,-339.5 66,-339.5 66,-339.5 60,-339.5 54,-333.5 54,-327.5 54,-327.5 54,-138.5 54,-138.5 54,-132.5 60,-126.5 66,-126.5"/>
<text text-anchor="middle" x="103.5" y="-324.3" font-family="Times,serif" font-size="14.00">StarsController</text>
<polyline fill="none" stroke="black" points="54,-316.5 153,-316.5 "/>
<text text-anchor="start" x="62" y="-301.3" font-family="Times,serif" font-size="14.00">create</text>
<text text-anchor="start" x="62" y="-286.3" font-family="Times,serif" font-size="14.00">destroy</text>
<text text-anchor="start" x="62" y="-271.3" font-family="Times,serif" font-size="14.00">edit</text>
<text text-anchor="start" x="62" y="-256.3" font-family="Times,serif" font-size="14.00">index</text>
<text text-anchor="start" x="62" y="-241.3" font-family="Times,serif" font-size="14.00">new</text>
<text text-anchor="start" x="62" y="-226.3" font-family="Times,serif" font-size="14.00">show</text>
<text text-anchor="start" x="62" y="-211.3" font-family="Times,serif" font-size="14.00">update</text>
<polyline fill="none" stroke="black" points="54,-203.5 153,-203.5 "/>
<polyline fill="none" stroke="black" points="54,-179.5 153,-179.5 "/>
<text text-anchor="start" x="62" y="-164.3" font-family="Times,serif" font-size="14.00">_layout</text>
<text text-anchor="start" x="62" y="-149.3" font-family="Times,serif" font-size="14.00">set_star</text>
<text text-anchor="start" x="62" y="-134.3" font-family="Times,serif" font-size="14.00">star_params</text>
</g>
<!-- CommentsController -->
<g id="node8" class="node"><title>CommentsController</title>
<path fill="none" stroke="black" d="M444,-396.5C444,-396.5 552,-396.5 552,-396.5 558,-396.5 564,-402.5 564,-408.5 564,-408.5 564,-597.5 564,-597.5 564,-603.5 558,-609.5 552,-609.5 552,-609.5 444,-609.5 444,-609.5 438,-609.5 432,-603.5 432,-597.5 432,-597.5 432,-408.5 432,-408.5 432,-402.5 438,-396.5 444,-396.5"/>
<text text-anchor="middle" x="498" y="-594.3" font-family="Times,serif" font-size="14.00">CommentsController</text>
<polyline fill="none" stroke="black" points="432,-586.5 564,-586.5 "/>
<text text-anchor="start" x="440" y="-571.3" font-family="Times,serif" font-size="14.00">create</text>
<text text-anchor="start" x="440" y="-556.3" font-family="Times,serif" font-size="14.00">destroy</text>
<text text-anchor="start" x="440" y="-541.3" font-family="Times,serif" font-size="14.00">edit</text>
<text text-anchor="start" x="440" y="-526.3" font-family="Times,serif" font-size="14.00">index</text>
<text text-anchor="start" x="440" y="-511.3" font-family="Times,serif" font-size="14.00">new</text>
<text text-anchor="start" x="440" y="-496.3" font-family="Times,serif" font-size="14.00">show</text>
<text text-anchor="start" x="440" y="-481.3" font-family="Times,serif" font-size="14.00">update</text>
<polyline fill="none" stroke="black" points="432,-473.5 564,-473.5 "/>
<polyline fill="none" stroke="black" points="432,-449.5 564,-449.5 "/>
<text text-anchor="start" x="440" y="-434.3" font-family="Times,serif" font-size="14.00">_layout</text>
<text text-anchor="start" x="440" y="-419.3" font-family="Times,serif" font-size="14.00">comment_params</text>
<text text-anchor="start" x="440" y="-404.3" font-family="Times,serif" font-size="14.00">set_comment</text>
</g>
<!-- ProjectsController -->
<g id="node9" class="node"><title>ProjectsController</title>
<path fill="none" stroke="black" d="M336,-108.5C336,-108.5 446,-108.5 446,-108.5 452,-108.5 458,-114.5 458,-120.5 458,-120.5 458,-339.5 458,-339.5 458,-345.5 452,-351.5 446,-351.5 446,-351.5 336,-351.5 336,-351.5 330,-351.5 324,-345.5 324,-339.5 324,-339.5 324,-120.5 324,-120.5 324,-114.5 330,-108.5 336,-108.5"/>
<text text-anchor="middle" x="391" y="-336.3" font-family="Times,serif" font-size="14.00">ProjectsController</text>
<polyline fill="none" stroke="black" points="324,-328.5 458,-328.5 "/>
<text text-anchor="start" x="332" y="-313.3" font-family="Times,serif" font-size="14.00">create</text>
<text text-anchor="start" x="332" y="-298.3" font-family="Times,serif" font-size="14.00">destroy</text>
<text text-anchor="start" x="332" y="-283.3" font-family="Times,serif" font-size="14.00">edit</text>
<text text-anchor="start" x="332" y="-268.3" font-family="Times,serif" font-size="14.00">get_projects_by_time</text>
<text text-anchor="start" x="332" y="-253.3" font-family="Times,serif" font-size="14.00">index</text>
<text text-anchor="start" x="332" y="-238.3" font-family="Times,serif" font-size="14.00">new</text>
<text text-anchor="start" x="332" y="-223.3" font-family="Times,serif" font-size="14.00">show</text>
<text text-anchor="start" x="332" y="-208.3" font-family="Times,serif" font-size="14.00">update</text>
<polyline fill="none" stroke="black" points="324,-200.5 458,-200.5 "/>
<polyline fill="none" stroke="black" points="324,-176.5 458,-176.5 "/>
<text text-anchor="start" x="332" y="-161.3" font-family="Times,serif" font-size="14.00">_layout</text>
<text text-anchor="start" x="332" y="-146.3" font-family="Times,serif" font-size="14.00">project_params</text>
<text text-anchor="start" x="332" y="-131.3" font-family="Times,serif" font-size="14.00">set_project</text>
<text text-anchor="start" x="332" y="-116.3" font-family="Times,serif" font-size="14.00">signed_in_user</text>
</g>
</g>
</svg>
