<?xml version="1.0" encoding="UTF-8" standalone="no"?>
<!DOCTYPE svg PUBLIC "-//W3C//DTD SVG 1.1//EN"
 "http://www.w3.org/Graphics/SVG/1.1/DTD/svg11.dtd">
<!-- Generated by graphviz version 2.36.0 (20140111.2315)
 -->
<!-- Title: models_diagram Pages: 1 -->
<svg width="523pt" height="538pt"
 viewBox="0.00 0.00 523.00 538.00" xmlns="http://www.w3.org/2000/svg" xmlns:xlink="http://www.w3.org/1999/xlink">
<g id="graph0" class="graph" transform="scale(1 1) rotate(0) translate(4 534)">
<title>models_diagram</title>
<polygon fill="none" stroke="none" points="-4,4 -4,-534 519,-534 519,4 -4,4"/>
<!-- _diagram_info -->
<g id="node1" class="node"><title>_diagram_info</title>
<text text-anchor="start" x="8" y="-470.6" font-family="Times,serif" font-size="13.00">Models diagram</text>
<text text-anchor="start" x="8" y="-456.6" font-family="Times,serif" font-size="13.00">Date: Jan 13 2016 &#45; 20:26</text>
<text text-anchor="start" x="8" y="-442.6" font-family="Times,serif" font-size="13.00">Migration version: 20160112143543</text>
<text text-anchor="start" x="8" y="-428.6" font-family="Times,serif" font-size="13.00">Generated by RailRoady 1.4.2</text>
<text text-anchor="start" x="8" y="-414.6" font-family="Times,serif" font-size="13.00">http://railroady.prestonlee.com</text>
</g>
<!-- Comment -->
<g id="node2" class="node"><title>Comment</title>
<path fill="none" stroke="black" d="M98.5,-0.5C98.5,-0.5 205.5,-0.5 205.5,-0.5 211.5,-0.5 217.5,-6.5 217.5,-12.5 217.5,-12.5 217.5,-109.5 217.5,-109.5 217.5,-115.5 211.5,-121.5 205.5,-121.5 205.5,-121.5 98.5,-121.5 98.5,-121.5 92.5,-121.5 86.5,-115.5 86.5,-109.5 86.5,-109.5 86.5,-12.5 86.5,-12.5 86.5,-6.5 92.5,-0.5 98.5,-0.5"/>
<text text-anchor="middle" x="152" y="-106.3" font-family="Times,serif" font-size="14.00">Comment</text>
<polyline fill="none" stroke="black" points="86.5,-98.5 217.5,-98.5 "/>
<text text-anchor="start" x="94.5" y="-83.3" font-family="Times,serif" font-size="14.00">id :INTEGER</text>
<text text-anchor="start" x="94.5" y="-68.3" font-family="Times,serif" font-size="14.00">user_id :integer</text>
<text text-anchor="start" x="94.5" y="-53.3" font-family="Times,serif" font-size="14.00">project_id :integer</text>
<text text-anchor="start" x="94.5" y="-38.3" font-family="Times,serif" font-size="14.00">content :varchar</text>
<text text-anchor="start" x="94.5" y="-23.3" font-family="Times,serif" font-size="14.00">created_at :datetime</text>
<text text-anchor="start" x="94.5" y="-8.3" font-family="Times,serif" font-size="14.00">updated_at :datetime</text>
</g>
<!-- Project -->
<g id="node3" class="node"><title>Project</title>
<path fill="none" stroke="black" d="M244.5,-363C244.5,-363 357.5,-363 357.5,-363 363.5,-363 369.5,-369 369.5,-375 369.5,-375 369.5,-517 369.5,-517 369.5,-523 363.5,-529 357.5,-529 357.5,-529 244.5,-529 244.5,-529 238.5,-529 232.5,-523 232.5,-517 232.5,-517 232.5,-375 232.5,-375 232.5,-369 238.5,-363 244.5,-363"/>
<text text-anchor="middle" x="301" y="-513.8" font-family="Times,serif" font-size="14.00">Project</text>
<polyline fill="none" stroke="black" points="232.5,-506 369.5,-506 "/>
<text text-anchor="start" x="240.5" y="-490.8" font-family="Times,serif" font-size="14.00">id :INTEGER</text>
<text text-anchor="start" x="240.5" y="-475.8" font-family="Times,serif" font-size="14.00">title :varchar</text>
<text text-anchor="start" x="240.5" y="-460.8" font-family="Times,serif" font-size="14.00">intro_content :varchar</text>
<text text-anchor="start" x="240.5" y="-445.8" font-family="Times,serif" font-size="14.00">user_id :integer</text>
<text text-anchor="start" x="240.5" y="-430.8" font-family="Times,serif" font-size="14.00">source_url :varchar</text>
<text text-anchor="start" x="240.5" y="-415.8" font-family="Times,serif" font-size="14.00">status :integer</text>
<text text-anchor="start" x="240.5" y="-400.8" font-family="Times,serif" font-size="14.00">created_at :datetime</text>
<text text-anchor="start" x="240.5" y="-385.8" font-family="Times,serif" font-size="14.00">updated_at :datetime</text>
<text text-anchor="start" x="240.5" y="-370.8" font-family="Times,serif" font-size="14.00">language :varchar</text>
</g>
<!-- Project&#45;&gt;Comment -->
<g id="edge2" class="edge"><title>Project&#45;&gt;Comment</title>
<path fill="none" stroke="#72852e" d="M229.418,-356.102C223.3,-346.273 217.676,-336.144 213,-326 184.22,-263.562 168.419,-186.369 160.158,-131.62"/>
<ellipse fill="none" stroke="#72852e" cx="231.574" cy="-359.482" rx="4.00002" ry="4.00002"/>
<polygon fill="#72852e" stroke="#72852e" points="160.15,-131.561 163.155,-121.015 159.426,-126.614 158.702,-121.666 158.702,-121.666 158.702,-121.666 159.426,-126.614 154.25,-122.318 160.15,-131.561 160.15,-131.561"/>
</g>
<!-- Star -->
<g id="node4" class="node"><title>Star</title>
<path fill="none" stroke="black" d="M396.5,-8C396.5,-8 503.5,-8 503.5,-8 509.5,-8 515.5,-14 515.5,-20 515.5,-20 515.5,-102 515.5,-102 515.5,-108 509.5,-114 503.5,-114 503.5,-114 396.5,-114 396.5,-114 390.5,-114 384.5,-108 384.5,-102 384.5,-102 384.5,-20 384.5,-20 384.5,-14 390.5,-8 396.5,-8"/>
<text text-anchor="middle" x="450" y="-98.8" font-family="Times,serif" font-size="14.00">Star</text>
<polyline fill="none" stroke="black" points="384.5,-91 515.5,-91 "/>
<text text-anchor="start" x="392.5" y="-75.8" font-family="Times,serif" font-size="14.00">id :INTEGER</text>
<text text-anchor="start" x="392.5" y="-60.8" font-family="Times,serif" font-size="14.00">user_id :integer</text>
<text text-anchor="start" x="392.5" y="-45.8" font-family="Times,serif" font-size="14.00">project_id :integer</text>
<text text-anchor="start" x="392.5" y="-30.8" font-family="Times,serif" font-size="14.00">created_at :datetime</text>
<text text-anchor="start" x="392.5" y="-15.8" font-family="Times,serif" font-size="14.00">updated_at :datetime</text>
</g>
<!-- Project&#45;&gt;Star -->
<g id="edge1" class="edge"><title>Project&#45;&gt;Star</title>
<path fill="none" stroke="#e42ab0" d="M371.892,-355.744C377.882,-346.019 383.397,-336.01 388,-326 418.088,-260.563 434.356,-179.06 442.577,-124.06"/>
<ellipse fill="none" stroke="#e42ab0" cx="369.589" cy="-359.389" rx="4.00002" ry="4.00002"/>
<polygon fill="#e42ab0" stroke="#e42ab0" points="442.585,-124.005 448.474,-114.754 443.303,-119.056 444.02,-114.108 444.02,-114.108 444.02,-114.108 443.303,-119.056 439.567,-113.462 442.585,-124.005 442.585,-124.005"/>
</g>
<!-- User -->
<g id="node6" class="node"><title>User</title>
<path fill="none" stroke="black" d="M234,-159C234,-159 368,-159 368,-159 374,-159 380,-165 380,-171 380,-171 380,-313 380,-313 380,-319 374,-325 368,-325 368,-325 234,-325 234,-325 228,-325 222,-319 222,-313 222,-313 222,-171 222,-171 222,-165 228,-159 234,-159"/>
<text text-anchor="middle" x="301" y="-309.8" font-family="Times,serif" font-size="14.00">User</text>
<polyline fill="none" stroke="black" points="222,-302 380,-302 "/>
<text text-anchor="start" x="230" y="-286.8" font-family="Times,serif" font-size="14.00">id :INTEGER</text>
<text text-anchor="start" x="230" y="-271.8" font-family="Times,serif" font-size="14.00">x_username :varchar</text>
<text text-anchor="start" x="230" y="-256.8" font-family="Times,serif" font-size="14.00">x_email :varchar</text>
<text text-anchor="start" x="230" y="-241.8" font-family="Times,serif" font-size="14.00">password_digest :varchar</text>
<text text-anchor="start" x="230" y="-226.8" font-family="Times,serif" font-size="14.00">admin :boolean</text>
<text text-anchor="start" x="230" y="-211.8" font-family="Times,serif" font-size="14.00">remember_token :varchar</text>
<text text-anchor="start" x="230" y="-196.8" font-family="Times,serif" font-size="14.00">avatar :varchar</text>
<text text-anchor="start" x="230" y="-181.8" font-family="Times,serif" font-size="14.00">created_at :datetime</text>
<text text-anchor="start" x="230" y="-166.8" font-family="Times,serif" font-size="14.00">updated_at :datetime</text>
</g>
<!-- Project&#45;&gt;User -->
<g id="edge3" class="edge"><title>Project&#45;&gt;User</title>
<path fill="none" stroke="#b64ba0" d="M301,-352.552C301,-346.826 301,-341.063 301,-335.338"/>
<polygon fill="#b64ba0" stroke="#b64ba0" points="301,-352.839 296.5,-362.839 301,-357.839 301,-362.839 301,-362.839 301,-362.839 301,-357.839 305.5,-362.839 301,-352.839 301,-352.839"/>
<polygon fill="#b64ba0" stroke="#b64ba0" points="301,-335.088 305.5,-325.088 301,-330.088 301,-325.088 301,-325.088 301,-325.088 301,-330.088 296.5,-325.088 301,-335.088 301,-335.088"/>
</g>
<!-- Thirdparty -->
<g id="node5" class="node"><title>Thirdparty</title>
<path fill="none" stroke="black" d="M247.5,-0.5C247.5,-0.5 354.5,-0.5 354.5,-0.5 360.5,-0.5 366.5,-6.5 366.5,-12.5 366.5,-12.5 366.5,-109.5 366.5,-109.5 366.5,-115.5 360.5,-121.5 354.5,-121.5 354.5,-121.5 247.5,-121.5 247.5,-121.5 241.5,-121.5 235.5,-115.5 235.5,-109.5 235.5,-109.5 235.5,-12.5 235.5,-12.5 235.5,-6.5 241.5,-0.5 247.5,-0.5"/>
<text text-anchor="middle" x="301" y="-106.3" font-family="Times,serif" font-size="14.00">Thirdparty</text>
<polyline fill="none" stroke="black" points="235.5,-98.5 366.5,-98.5 "/>
<text text-anchor="start" x="243.5" y="-83.3" font-family="Times,serif" font-size="14.00">id :INTEGER</text>
<text text-anchor="start" x="243.5" y="-68.3" font-family="Times,serif" font-size="14.00">identifier :varchar</text>
<text text-anchor="start" x="243.5" y="-53.3" font-family="Times,serif" font-size="14.00">user_id :integer</text>
<text text-anchor="start" x="243.5" y="-38.3" font-family="Times,serif" font-size="14.00">type :integer</text>
<text text-anchor="start" x="243.5" y="-23.3" font-family="Times,serif" font-size="14.00">created_at :datetime</text>
<text text-anchor="start" x="243.5" y="-8.3" font-family="Times,serif" font-size="14.00">updated_at :datetime</text>
</g>
<!-- User&#45;&gt;Comment -->
<g id="edge5" class="edge"><title>User&#45;&gt;Comment</title>
<path fill="none" stroke="#91396b" d="M227.475,-152.671C221.069,-144.976 214.654,-137.269 208.418,-129.777"/>
<ellipse fill="none" stroke="#91396b" cx="230.046" cy="-155.76" rx="4.00002" ry="4.00002"/>
<polygon fill="#91396b" stroke="#91396b" points="208.129,-129.43 205.19,-118.865 204.93,-125.587 201.731,-121.744 201.731,-121.744 201.731,-121.744 204.93,-125.587 198.273,-124.623 208.129,-129.43 208.129,-129.43"/>
</g>
<!-- User&#45;&gt;Star -->
<g id="edge4" class="edge"><title>User&#45;&gt;Star</title>
<path fill="none" stroke="#f654fc" d="M374.73,-152.425C383.315,-142.112 391.914,-131.782 400.07,-121.983"/>
<ellipse fill="none" stroke="#f654fc" cx="371.954" cy="-155.76" rx="4.00002" ry="4.00002"/>
<polygon fill="#f654fc" stroke="#f654fc" points="400.11,-121.936 409.966,-117.129 403.308,-118.093 406.507,-114.25 406.507,-114.25 406.507,-114.25 403.308,-118.093 403.049,-111.371 400.11,-121.936 400.11,-121.936"/>
</g>
<!-- User&#45;&gt;Thirdparty -->
<g id="edge6" class="edge"><title>User&#45;&gt;Thirdparty</title>
<path fill="none" stroke="#4b2d4d" d="M301,-150.615C301,-143.728 301,-136.849 301,-130.14"/>
<ellipse fill="none" stroke="#4b2d4d" cx="301" cy="-154.834" rx="4" ry="4"/>
<ellipse fill="#4b2d4d" stroke="#4b2d4d" cx="301" cy="-125.744" rx="4" ry="4"/>
</g>
</g>
</svg>
