<?xml version="1.0" encoding="UTF-8" standalone="no"?>
<!DOCTYPE svg PUBLIC "-//W3C//DTD SVG 1.1//EN"
 "http://www.w3.org/Graphics/SVG/1.1/DTD/svg11.dtd">
<!-- Generated by graphviz version 2.36.0 (20140111.2315)
 -->
<!-- Title: models_diagram Pages: 1 -->
<svg width="396pt" height="230pt"
 viewBox="0.00 0.00 396.00 230.00" xmlns="http://www.w3.org/2000/svg" xmlns:xlink="http://www.w3.org/1999/xlink">
<g id="graph0" class="graph" transform="scale(1 1) rotate(0) translate(4 226)">
<title>models_diagram</title>
<polygon fill="none" stroke="none" points="-4,4 -4,-226 392,-226 392,4 -4,4"/>
<!-- _diagram_info -->
<g id="node1" class="node"><title>_diagram_info</title>
<text text-anchor="start" x="8" y="-207.6" font-family="Times,serif" font-size="13.00">Models diagram</text>
<text text-anchor="start" x="8" y="-193.6" font-family="Times,serif" font-size="13.00">Date: Jan 13 2016 &#45; 20:27</text>
<text text-anchor="start" x="8" y="-179.6" font-family="Times,serif" font-size="13.00">Migration version: 20160112143543</text>
<text text-anchor="start" x="8" y="-165.6" font-family="Times,serif" font-size="13.00">Generated by RailRoady 1.4.2</text>
<text text-anchor="start" x="8" y="-151.6" font-family="Times,serif" font-size="13.00">http://railroady.prestonlee.com</text>
</g>
<!-- Comment -->
<g id="node2" class="node"><title>Comment</title>
<ellipse fill="none" stroke="black" cx="156" cy="-18" rx="46.2191" ry="18"/>
<text text-anchor="middle" x="156" y="-14.3" font-family="Times,serif" font-size="14.00">Comment</text>
</g>
<!-- Project -->
<g id="node3" class="node"><title>Project</title>
<ellipse fill="none" stroke="black" cx="268" cy="-183" rx="35.6194" ry="18"/>
<text text-anchor="middle" x="268" y="-179.3" font-family="Times,serif" font-size="14.00">Project</text>
</g>
<!-- Project&#45;&gt;Comment -->
<g id="edge2" class="edge"><title>Project&#45;&gt;Comment</title>
<path fill="none" stroke="#05718e" d="M252.279,-159.12C231.484,-128.856 194.951,-75.6875 173.363,-44.2698"/>
<ellipse fill="none" stroke="#05718e" cx="254.586" cy="-162.478" rx="4.00002" ry="4.00002"/>
<polygon fill="#05718e" stroke="#05718e" points="173.1,-43.8866 171.146,-33.0962 170.268,-39.7656 167.437,-35.6447 167.437,-35.6447 167.437,-35.6447 170.268,-39.7656 163.728,-38.1931 173.1,-43.8866 173.1,-43.8866"/>
</g>
<!-- Star -->
<g id="node4" class="node"><title>Star</title>
<ellipse fill="none" stroke="black" cx="361" cy="-18" rx="27" ry="18"/>
<text text-anchor="middle" x="361" y="-14.3" font-family="Times,serif" font-size="14.00">Star</text>
</g>
<!-- Project&#45;&gt;Star -->
<g id="edge1" class="edge"><title>Project&#45;&gt;Star</title>
<path fill="none" stroke="#4cb3bb" d="M281.503,-158.333C298.893,-127.854 328.985,-75.1123 346.736,-43.9996"/>
<ellipse fill="none" stroke="#4cb3bb" cx="279.411" cy="-161.999" rx="4.00002" ry="4.00002"/>
<polygon fill="#4cb3bb" stroke="#4cb3bb" points="346.866,-43.7726 355.73,-37.3169 349.344,-39.4297 351.822,-35.0868 351.822,-35.0868 351.822,-35.0868 349.344,-39.4297 347.913,-32.8568 346.866,-43.7726 346.866,-43.7726"/>
</g>
<!-- User -->
<g id="node6" class="node"><title>User</title>
<ellipse fill="none" stroke="black" cx="268" cy="-90" rx="26.949" ry="18"/>
<text text-anchor="middle" x="268" y="-86.3" font-family="Times,serif" font-size="14.00">User</text>
</g>
<!-- Project&#45;&gt;User -->
<g id="edge3" class="edge"><title>Project&#45;&gt;User</title>
<path fill="none" stroke="#0b3462" d="M268,-154.549C268,-143.083 268,-129.792 268,-118.339"/>
<polygon fill="#0b3462" stroke="#0b3462" points="268,-154.884 263.5,-164.884 268,-159.884 268,-164.884 268,-164.884 268,-164.884 268,-159.884 272.5,-164.884 268,-154.884 268,-154.884"/>
<polygon fill="#0b3462" stroke="#0b3462" points="268,-118.04 272.5,-108.04 268,-113.04 268,-108.04 268,-108.04 268,-108.04 268,-113.04 263.5,-108.04 268,-118.04 268,-118.04"/>
</g>
<!-- Thirdparty -->
<g id="node5" class="node"><title>Thirdparty</title>
<ellipse fill="none" stroke="black" cx="268" cy="-18" rx="48.1437" ry="18"/>
<text text-anchor="middle" x="268" y="-14.3" font-family="Times,serif" font-size="14.00">Thirdparty</text>
</g>
<!-- User&#45;&gt;Comment -->
<g id="edge5" class="edge"><title>User&#45;&gt;Comment</title>
<path fill="none" stroke="#1346f2" d="M242.091,-72.8071C225.966,-62.7285 205.105,-49.6904 187.957,-38.9728"/>
<ellipse fill="none" stroke="#1346f2" cx="245.609" cy="-75.0054" rx="4.00002" ry="4.00002"/>
<polygon fill="#1346f2" stroke="#1346f2" points="187.852,-38.9077 181.757,-29.7917 183.612,-36.2577 179.372,-33.6077 179.372,-33.6077 179.372,-33.6077 183.612,-36.2577 176.987,-37.4237 187.852,-38.9077 187.852,-38.9077"/>
</g>
<!-- User&#45;&gt;Star -->
<g id="edge4" class="edge"><title>User&#45;&gt;Star</title>
<path fill="none" stroke="#c18861" d="M292.082,-70.874C305.435,-60.8229 322.031,-48.3312 335.591,-38.1248"/>
<ellipse fill="none" stroke="#c18861" cx="288.688" cy="-73.428" rx="4.00002" ry="4.00002"/>
<polygon fill="#c18861" stroke="#c18861" points="335.596,-38.1212 346.292,-35.7028 339.591,-35.1143 343.586,-32.1074 343.586,-32.1074 343.586,-32.1074 339.591,-35.1143 340.88,-28.5121 335.596,-38.1212 335.596,-38.1212"/>
</g>
<!-- User&#45;&gt;Thirdparty -->
<g id="edge6" class="edge"><title>User&#45;&gt;Thirdparty</title>
<path fill="none" stroke="#9cf128" d="M268,-63.6398C268,-57.348 268,-50.6053 268,-44.3156"/>
<ellipse fill="none" stroke="#9cf128" cx="268" cy="-67.6966" rx="4" ry="4"/>
<ellipse fill="#9cf128" stroke="#9cf128" cx="268" cy="-40.1043" rx="4" ry="4"/>
</g>
</g>
</svg>
